REM DIRINDEX 1\2,1\3,1\4,1\5
REM DIRNAME "folder01","folder02","folder03","folder04","folder05"
TITLE ""
FILE "P1Q_t_0688-0697.mp3" MP3
  TRACK 01 AUDIO
    TITLE "0:"
    INDEX 01 00:00:00
  TRACK 02 AUDIO
    TITLE "3:cjc173_3002"
    INDEX 01 00:00:10
  TRACK 03 AUDIO
    TITLE "0:"
    INDEX 01 00:01:47
  TRACK 04 AUDIO
    TITLE "4:cjc173_3003"
    INDEX 01 00:01:69
  TRACK 05 AUDIO
    TITLE "0:"
    INDEX 01 00:04:53
  TRACK 06 AUDIO
    TITLE "5:cjc173_3004"
    INDEX 01 00:04:71
  TRACK 07 AUDIO
    TITLE "0:"
    INDEX 01 00:09:62
  TRACK 08 AUDIO
    TITLE "3:cjc173_3005"
    INDEX 01 00:10:34
  TRACK 09 AUDIO
    TITLE "0:"
    INDEX 01 00:11:55
  TRACK 10 AUDIO
    TITLE "4:cjc173_3006"
    INDEX 01 00:12:02
  TRACK 11 AUDIO
    TITLE "0:"
    INDEX 01 00:14:65
  TRACK 12 AUDIO
    TITLE "5:cjc173_3007"
    INDEX 01 00:15:10
  TRACK 13 AUDIO
    TITLE "0:"
    INDEX 01 00:20:56
  TRACK 14 AUDIO
    TITLE "3:cjc173_3008"
    INDEX 01 00:21:30
  TRACK 15 AUDIO
    TITLE "0:"
    INDEX 01 00:22:37
  TRACK 16 AUDIO
    TITLE "4:cjc173_3009"
    INDEX 01 00:22:61
  TRACK 17 AUDIO
    TITLE "0:"
    INDEX 01 00:25:12
  TRACK 18 AUDIO
    TITLE "5:cjc173_3010"
    INDEX 01 00:25:32
  TRACK 19 AUDIO
    TITLE "0:"
    INDEX 01 00:31:19
  TRACK 20 AUDIO
    TITLE "3:cjc173_3011"
    INDEX 01 00:31:66
  TRACK 21 AUDIO
    TITLE "0:"
    INDEX 01 00:33:25
  TRACK 22 AUDIO
    TITLE "4:cjc173_3012"
    INDEX 01 00:33:49
  TRACK 23 AUDIO
    TITLE "0:"
    INDEX 01 00:35:73
  TRACK 24 AUDIO
    TITLE "5:cjc173_3013"
    INDEX 01 00:36:18
  TRACK 25 AUDIO
    TITLE "0:"
    INDEX 01 00:41:37
  TRACK 26 AUDIO
    TITLE "3:cjc173_3014"
    INDEX 01 00:42:09
  TRACK 27 AUDIO
    TITLE "0:"
    INDEX 01 00:43:28
  TRACK 28 AUDIO
    TITLE "4:cjc173_3015"
    INDEX 01 00:43:51
  TRACK 29 AUDIO
    TITLE "0:"
    INDEX 01 00:46:08
  TRACK 30 AUDIO
    TITLE "5:cjc173_3016"
    INDEX 01 00:46:28
  TRACK 31 AUDIO
    TITLE "0:"
    INDEX 01 00:52:01
  TRACK 32 AUDIO
    TITLE "3:cjc173_3017"
    INDEX 01 00:52:46
  TRACK 33 AUDIO
    TITLE "0:"
    INDEX 01 00:53:50
  TRACK 34 AUDIO
    TITLE "4:cjc173_3018"
    INDEX 01 00:53:71
  TRACK 35 AUDIO
    TITLE "0:"
    INDEX 01 00:56:26
  TRACK 36 AUDIO
    TITLE "5:cjc173_3019"
    INDEX 01 00:56:46
  TRACK 37 AUDIO
    TITLE "0:"
    INDEX 01 01:00:75
  TRACK 38 AUDIO
    TITLE "3:cjc173_3020"
    INDEX 01 01:01:47
  TRACK 39 AUDIO
    TITLE "0:"
    INDEX 01 01:02:51
  TRACK 40 AUDIO
    TITLE "4:cjc173_3021"
    INDEX 01 01:02:74
  TRACK 41 AUDIO
    TITLE "0:"
    INDEX 01 01:06:11
  TRACK 42 AUDIO
    TITLE "5:cjc173_3022"
    INDEX 01 01:06:31
  TRACK 43 AUDIO
    TITLE "0:"
    INDEX 01 01:10:23
  TRACK 44 AUDIO
    TITLE "3:cjc173_3023"
    INDEX 01 01:10:70
  TRACK 45 AUDIO
    TITLE "0:"
    INDEX 01 01:12:08
  TRACK 46 AUDIO
    TITLE "4:cjc173_3024"
    INDEX 01 01:12:29
  TRACK 47 AUDIO
    TITLE "0:"
    INDEX 01 01:15:04
  TRACK 48 AUDIO
    TITLE "5:cjc173_3025"
    INDEX 01 01:15:24
  TRACK 49 AUDIO
    TITLE "0:"
    INDEX 01 01:21:07
  TRACK 50 AUDIO
    TITLE "3:cjc173_3026"
    INDEX 01 01:21:52
  TRACK 51 AUDIO
    TITLE "0:"
    INDEX 01 01:22:61
  TRACK 52 AUDIO
    TITLE "4:cjc173_3027"
    INDEX 01 01:23:08
  TRACK 53 AUDIO
    TITLE "0:"
    INDEX 01 01:24:38
  TRACK 54 AUDIO
    TITLE "5:cjc173_3028"
    INDEX 01 01:24:58
  TRACK 55 AUDIO
    TITLE "0:"
    INDEX 01 01:28:42
  TRACK 56 AUDIO
    TITLE "3:cjc173_3029"
    INDEX 01 01:29:12
  TRACK 57 AUDIO
    TITLE "0:"
    INDEX 01 01:30:47
  TRACK 58 AUDIO
    TITLE "4:cjc173_3030"
    INDEX 01 01:30:70
  TRACK 59 AUDIO
    TITLE "0:"
    INDEX 01 01:33:12
  TRACK 60 AUDIO
    TITLE "5:cjc173_3031"
    INDEX 01 01:33:33
  TRACK 61 AUDIO
    TITLE "0:"
    INDEX 01 01:38:54
